<svg width="24" height="24" viewBox="0 0 24 24" fill="none" xmlns="http://www.w3.org/2000/svg">
<path fill-rule="evenodd" clip-rule="evenodd" d="M2.05556 23C1.47259 23 1 22.5248 1 21.9387V2.06137C1 1.47519 1.47259 1 2.05556 1H21.9445C22.5274 1 23 1.47519 23 2.06137V21.9387C23 22.5248 22.5274 23 21.9445 23C21.2408 23 14.6111 23 2.05556 23Z" fill="#234EBD"/>
<path fill-rule="evenodd" clip-rule="evenodd" d="M19.3308 8.94382H17.1538H16.8966C16.2215 8.94382 15.6743 9.49107 15.6743 10.1661V12.6112H19.3308L18.7953 16.2766H15.6743V23.0004H11.6533V16.2766H8.3335V12.6112H11.6104L11.6533 9.13202L11.6414 7.88507C11.6245 6.12422 13.0382 4.68308 14.799 4.66616C14.8092 4.66607 14.8194 4.66602 14.8296 4.66602H19.3308V8.94382Z" fill="#FDFDFD"/>
</svg>
